# xmcd
#
# Track frame offsets:
#	150
#	18145
#	37705
#	57012
#	77224
#	96247
#	114097
#	131674
#	151733
#	167974
#	186886
#	195136
#
# Disc length: 2861 seconds
#
# Revision: 1
# Processed by: cddbd v1.5.2PL0 Copyright (c) Steve Scherf et al.
# Submitted via: audiograbber 1.83.01
#
DISCID=820b2b0c
DTITLE=Kareyce Fotso - Mokte
DYEAR=2014
DGENRE=
TTITLE0=Te Wa Vouan Ne Ma
TTITLE1=Ndolo comment ca va
TTITLE2=Azany
TTITLE3=Manke
TTITLE4=Just Believe
TTITLE5=Kak Pou Tseu
TTITLE6=Kowadi
TTITLE7=Messa
TTITLE8=Tiwassa
TTITLE9=Youmbata
TTITLE10=Ke Wouac A
TTITLE11=Aya
EXTD=
EXTT0=
EXTT1=
EXTT2=
EXTT3=
EXTT4=
EXTT5=
EXTT6=
EXTT7=
EXTT8=
EXTT9=
EXTT10=
EXTT11=
PLAYORDER=
